<svg version="1" xmlns="http://www.w3.org/2000/svg" width="682.667" height="682.667" viewBox="0 0 512.000000 512.000000"><path d="M87.3 121.4c-10 3.2-16.1 8.7-20.6 18.4l-2.2 4.7v224l2.2 4.8c3.7 8 7.8 12.3 15.1 15.9l6.7 3.3h40c38.7 0 40.1-.1 44.6-2.1 6.4-3 12.5-8.8 15.7-14.8l2.7-5.1.3-47.8.3-47.7h128.8l.3 47.7.3 47.8 2.7 5.1c3.2 6 9.3 11.8 15.7 14.8 4.5 2 5.9 2.1 44.6 2.1h40l6.7-3.3c7.3-3.6 11.4-7.9 15.1-15.9l2.2-4.8v-224l-2.2-4.8c-3.7-8-7.8-12.3-15.1-15.9l-6.7-3.3h-40c-38.7 0-40.1.1-44.6 2.1-6.4 3-12.5 8.8-15.7 14.8l-2.7 5.1-.3 47.7-.3 47.8H192.1l-.3-47.8-.3-47.7-2.7-5.1c-3.2-6-9.3-11.8-15.7-14.8-4.4-2-6.1-2.1-43.1-2.3-30-.2-39.4.1-42.7 1.1zM20.7 153.4c-9 3.3-15.3 9.5-18.8 18.6-1.8 4.8-1.9 8.5-1.9 84.5 0 77.1.1 79.6 2 84.8 2.6 7 7.5 12.5 14.1 16.2 5.2 2.9 5.9 3 20.7 3.3l15.2.4V152H38.3c-9 .1-15.1.6-17.6 1.4zM461 256.5v104.7l15.3-.4c13.4-.3 15.7-.6 19.4-2.6 6.4-3.4 10.9-7.8 13.7-13.4l2.6-5.2V173.4l-2.6-5.2c-2.8-5.6-7.3-10-13.7-13.4-3.7-2-6-2.3-19.4-2.6l-15.3-.4v104.7z"/></svg>